<?xml version="1.0" standalone="no"?>
<!DOCTYPE svg PUBLIC "-//W3C//DTD SVG 20010904//EN"
 "http://www.w3.org/TR/2001/REC-SVG-20010904/DTD/svg10.dtd">
<svg version="1.0" xmlns="http://www.w3.org/2000/svg"
 width="450.000000pt" height="421.000000pt" viewBox="0 0 450.000000 421.000000"
 preserveAspectRatio="xMidYMid meet">
<metadata>
Created by potrace 1.10, written by Peter Selinger 2001-2011
</metadata>
<g transform="translate(0.000000,421.000000) scale(0.050000,-0.050000)"
fill="#000000" stroke="none">
<path d="M4420 8227 c-77 -12 -208 -52 -229 -70 -10 -10 -44 -17 -75 -17 -31
0 -56 -8 -56 -18 0 -9 -38 -27 -85 -39 -47 -12 -105 -40 -129 -62 -25 -23 -53
-41 -64 -41 -42 0 -122 -48 -122 -73 0 -14 -34 -44 -76 -65 -41 -21 -89 -64
-105 -95 -16 -31 -45 -69 -64 -83 -93 -69 -231 -351 -269 -549 -12 -60 22
-163 72 -222 19 -22 33 -79 35 -140 2 -57 8 -130 14 -163 6 -33 25 -159 44
-280 50 -330 49 -326 72 -285 10 19 31 35 45 35 19 0 25 41 24 155 -2 155 45
292 122 355 18 14 20 42 7 95 -9 41 -11 75 -4 75 7 0 14 50 16 111 2 86 12
119 46 148 24 21 42 45 39 54 -2 10 31 30 74 46 43 16 84 37 91 48 7 10 23 12
35 4 12 -7 28 0 34 18 7 17 21 25 32 18 13 -7 15 4 7 30 -10 30 -5 43 15 43
15 0 44 17 63 39 20 22 48 33 68 26 18 -6 26 -4 18 5 -8 9 -1 26 16 39 41 29
17 92 -32 84 -21 -3 -44 -11 -52 -19 -7 -7 -25 -4 -40 9 -20 16 -27 16 -27 -1
0 -12 -13 -22 -28 -22 -16 0 -54 -39 -86 -87 -31 -47 -68 -82 -81 -78 -14 5
-20 -8 -15 -33 6 -35 -2 -40 -66 -36 -59 3 -77 -5 -94 -41 -12 -29 -38 -46
-70 -47 -27 0 -39 -6 -25 -11 29 -12 34 -67 7 -67 -50 0 -85 26 -59 42 20 13
21 17 2 18 -14 0 -25 18 -25 40 0 27 -13 40 -40 40 -49 0 -50 -6 10 112 27 54
50 108 50 121 0 12 23 28 51 36 29 7 48 23 43 37 -18 51 26 94 97 94 58 0 69
7 69 45 -1 36 -4 39 -20 15 -16 -24 -19 -22 -20 13 0 57 134 109 162 64 18
-28 25 -11 20 45 -2 19 22 43 58 58 34 14 71 42 81 63 22 39 79 51 79 16 0
-26 76 12 125 62 34 36 69 34 180 -11 23 -9 39 -3 47 18 8 20 36 32 73 32 l61
0 -38 44 -38 44 54 -33 c35 -22 56 -26 60 -12 5 14 26 17 55 7 29 -9 38 -20
24 -28 -15 -9 -3 -29 34 -57 41 -30 67 -76 91 -163 36 -129 63 -163 48 -62
-10 67 13 76 68 27 45 -42 55 -32 42 39 -8 42 -20 53 -44 44 -25 -10 -27 -7
-8 12 19 19 13 30 -28 52 -28 15 -57 22 -62 16 -6 -5 -2 -10 8 -10 11 0 21
-20 23 -45 3 -44 2 -44 -27 -6 -16 22 -25 51 -19 65 5 15 -10 31 -36 37 -26 6
-46 24 -46 38 0 21 10 22 46 6 26 -12 47 -28 47 -36 0 -40 80 -33 82 8 2 36 4
37 12 6 7 -26 22 -33 50 -26 23 6 54 -2 70 -18 16 -16 36 -25 45 -20 9 6 32
-8 51 -29 20 -22 51 -40 68 -40 27 -1 27 -4 4 -18 -24 -15 -24 -29 -3 -80 14
-34 26 -106 27 -161 1 -54 9 -94 18 -89 9 6 16 6 16 0 0 -22 -47 -112 -58
-112 -38 1 -63 42 -66 106 -3 85 -3 85 -45 43 -28 -29 -31 -20 -31 95 0 69
-10 140 -21 156 -14 21 -18 -13 -15 -114 2 -80 -2 -151 -10 -159 -8 -7 -14 1
-14 20 0 18 -9 33 -20 33 -11 0 -20 30 -20 68 0 145 -55 124 -70 -27 -16 -157
-40 -175 -127 -96 -27 25 -42 32 -33 17 11 -19 9 -24 -7 -14 -13 8 -37 1 -53
-15 -29 -29 -52 -30 -180 -2 -77 17 -210 30 -167 17 56 -17 60 -63 5 -53 -26
6 -48 18 -48 27 0 10 -28 18 -61 18 -57 0 -59 -3 -30 -32 19 -19 27 -48 20
-70 -13 -42 42 -34 57 9 4 13 5 3 1 -22 -6 -34 2 -45 31 -45 21 0 54 -6 74
-13 25 -10 30 -7 19 12 -21 34 66 8 114 -34 22 -19 44 -24 60 -13 22 16 115
20 250 11 25 -2 43 -14 40 -28 -7 -35 89 -32 121 5 21 23 23 23 12 2 -11 -21
-6 -25 20 -16 20 8 29 5 22 -6 -6 -10 13 -25 44 -32 31 -8 67 -23 81 -34 14
-11 32 -14 39 -7 7 7 35 -1 61 -19 27 -17 54 -26 60 -20 7 7 26 0 43 -16 53
-45 122 -60 122 -24 0 30 131 80 161 61 8 -5 11 -69 6 -143 -8 -113 -2 -142
33 -190 53 -71 14 -73 -52 -2 -29 31 -44 39 -37 20 8 -19 2 -48 -11 -64 -19
-23 -19 -30 -1 -30 13 0 21 -16 19 -35 -8 -55 41 -205 86 -267 36 -47 40 -76
31 -196 -8 -120 -4 -146 28 -174 20 -19 38 -49 38 -66 1 -18 15 3 30 45 16 43
23 86 17 96 -6 10 4 105 23 212 34 201 52 370 49 475 -3 123 -10 170 -25 170
-8 0 -15 8 -15 18 0 10 20 13 45 7 l45 -11 -39 48 c-22 26 -67 78 -100 116
-41 45 -53 70 -36 76 14 5 25 22 25 38 0 15 11 28 25 28 19 1 19 4 -1 17 -14
9 -20 31 -13 49 7 19 21 29 31 23 54 -34 3 46 -102 158 -123 131 -166 205 -62
105 34 -33 63 -47 70 -35 7 12 -30 45 -83 75 -52 30 -113 66 -135 81 -22 15
-104 71 -182 124 -355 243 -645 333 -928 290z m934 -525 c-20 -24 -18 -27 11
-16 26 9 35 3 35 -27 0 -21 9 -39 20 -39 11 0 20 10 20 21 0 51 37 -8 60 -96
23 -86 27 -90 40 -45 12 43 17 45 29 15 9 -19 23 -30 33 -24 26 16 44 -82 29
-161 -16 -89 -36 -89 -71 0 -15 39 -33 61 -40 50 -6 -10 -29 30 -50 91 -40
118 -71 161 -55 77 10 -49 -49 -188 -80 -188 -25 0 -17 96 10 107 15 6 11 10
-10 11 -19 1 -35 16 -35 32 0 17 -8 30 -18 30 -10 0 -15 38 -11 85 4 47 7 92
8 100 1 8 23 13 50 11 40 -4 45 -10 25 -34z"/>
<path d="M4373 7765 c34 -136 66 -188 98 -157 37 37 37 52 -1 52 -16 0 -30 13
-30 29 0 42 -43 131 -64 131 -9 0 -11 -25 -3 -55z"/>
<path d="M4550 7777 c-6 -15 2 -64 19 -108 l29 -79 -7 96 c-8 103 -23 138 -41
91z"/>
<path d="M4733 7759 c23 -23 14 -99 -13 -99 -8 0 -20 -22 -25 -50 -6 -34 -1
-50 19 -50 16 0 23 8 17 18 -6 10 -5 35 3 55 12 31 17 27 28 -23 9 -43 12 -31
10 45 -1 73 -11 108 -32 116 -22 8 -24 6 -7 -12z"/>
<path d="M5125 7689 c-14 -15 -24 -48 -24 -73 2 -46 2 -45 22 4 20 48 22 48
38 10 14 -35 16 -34 18 14 1 64 -20 82 -54 45z"/>
<path d="M4351 7584 c-17 -17 -26 -18 -135 -21 -50 -2 -76 -10 -65 -21 10 -9
82 -11 159 -4 122 11 135 16 98 37 -24 13 -49 17 -57 9z"/>
<path d="M4564 7556 c-32 -32 -30 -49 7 -64 18 -6 26 -3 19 8 -7 11 -3 20 9
20 11 0 21 14 21 30 0 36 -23 39 -56 6z"/>
<path d="M2740 7440 c0 -44 9 -80 20 -80 11 0 20 36 20 80 0 44 -9 80 -20 80
-11 0 -20 -36 -20 -80z"/>
<path d="M5906 7271 c36 -27 36 -28 0 -37 -20 -5 -12 -9 19 -7 64 2 71 23 16
52 -55 30 -78 25 -35 -8z"/>
<path d="M4061 6744 c-1 -15 -9 -21 -20 -15 -27 17 -46 -24 -26 -59 14 -26 22
-26 54 -3 29 21 32 34 14 65 -12 21 -22 27 -22 12z"/>
<path d="M4405 6706 c-45 -120 -45 -126 -3 -126 22 0 38 11 37 25 -8 54 2 75
36 75 27 1 29 5 8 18 -14 9 -25 24 -23 34 8 44 -37 23 -55 -26z"/>
<path d="M4809 6746 c-56 -11 -109 -106 -109 -194 0 -40 -9 -72 -20 -72 -11 0
-20 -14 -20 -31 0 -17 8 -26 19 -20 10 7 17 -12 15 -41 -2 -30 5 -57 16 -61
12 -4 20 35 20 95 0 73 10 108 35 127 19 14 35 37 35 51 0 19 7 19 27 3 42
-35 54 -4 20 49 -26 39 -27 54 -7 78 14 17 22 29 17 27 -4 -1 -26 -6 -48 -11z"/>
<path d="M5249 6700 c0 -22 6 -40 13 -40 7 0 19 -20 26 -45 12 -44 13 -44 36
-5 12 22 30 45 38 51 9 5 8 23 -3 40 -15 24 -18 23 -19 -6 0 -48 -33 -44 -46
5 -6 22 -18 40 -28 40 -10 0 -17 -18 -17 -40z"/>
<path d="M3731 6297 c-51 -57 -88 -115 -83 -129 6 -15 -23 -37 -71 -57 -90
-36 -95 -106 -14 -209 20 -26 37 -62 37 -81 0 -130 141 -281 262 -281 20 0 44
-15 54 -33 14 -25 36 -29 96 -19 43 8 110 14 148 14 57 0 63 4 30 18 -28 12
-8 15 64 11 101 -6 106 -4 155 71 55 84 131 269 131 321 0 142 89 68 191 -158
41 -91 83 -165 93 -165 10 0 13 9 6 20 -17 27 -7 25 65 -11 236 -117 640 -36
675 137 49 238 95 286 117 121 25 -179 14 -302 -39 -450 -29 -80 -53 -166 -53
-191 0 -25 -6 -42 -13 -37 -8 5 -12 -29 -10 -75 2 -46 -7 -97 -19 -112 -24
-30 -26 -44 -35 -228 -3 -64 -17 -125 -32 -137 -14 -12 -21 -30 -15 -39 7 -10
-2 -23 -18 -30 -17 -6 -26 -24 -20 -40 6 -15 1 -28 -11 -28 -12 0 -20 10 -17
23 3 12 -6 26 -20 31 -14 5 -25 -1 -25 -14 0 -12 -10 -16 -23 -8 -14 8 -18 5
-10 -7 38 -62 28 -188 -19 -239 -37 -40 -48 -44 -48 -19 0 18 -10 33 -22 33
-14 0 -18 -19 -10 -49 9 -35 5 -47 -13 -41 -14 5 -43 -20 -65 -56 -48 -76
-169 -105 -171 -40 0 31 -6 30 -40 -11 -30 -36 -39 -40 -39 -15 0 36 -31 43
-50 12 -20 -32 -90 -23 -90 11 0 18 -25 35 -63 43 -37 7 -66 27 -72 49 -11 41
-65 51 -66 12 0 -14 -9 -9 -21 10 -26 45 -58 28 -44 -24 11 -41 -69 -37 -97 5
-7 11 -11 -17 -9 -63 2 -46 -3 -83 -13 -83 -10 0 -12 -9 -5 -20 7 -11 4 -20
-6 -20 -11 0 -26 20 -34 45 -12 38 -16 40 -24 10 -9 -36 -46 -49 -46 -16 0 10
-19 24 -42 32 -29 9 -39 25 -32 51 6 21 3 34 -5 29 -8 -5 -34 13 -58 40 -25
28 -64 49 -94 49 -29 0 -46 9 -39 20 7 11 2 20 -11 20 -13 0 -18 14 -11 32 13
35 -54 160 -94 173 -18 7 -18 16 1 39 22 26 19 33 -15 42 -30 8 -40 27 -40 75
0 35 -14 75 -30 87 -17 12 -33 51 -35 87 -3 36 -12 65 -20 65 -8 0 -15 10 -15
21 0 12 9 16 20 9 11 -7 20 2 20 19 0 17 17 31 39 31 21 0 44 9 51 20 7 11 -9
20 -37 20 -38 0 -58 19 -89 86 -47 101 -104 159 -104 106 0 -80 -43 -18 -92
133 -45 137 -55 203 -56 390 -2 166 -9 225 -27 225 -14 0 -25 10 -25 22 0 17
-7 17 -27 0 -21 -17 -46 -14 -104 10 -226 94 -296 -164 -140 -517 170 -381
218 -435 331 -371 33 19 60 30 60 24 0 -272 85 -568 206 -714 102 -123 131
-251 76 -330 -20 -30 -90 -139 -154 -242 -126 -202 -163 -234 -368 -312 -533
-203 -686 -258 -958 -349 -169 -56 -375 -134 -458 -172 -82 -38 -166 -69 -185
-69 -107 0 -148 -69 -169 -280 -8 -82 -36 -252 -62 -376 -27 -125 -63 -346
-79 -490 -33 -285 -69 -505 -117 -725 -17 -76 -45 -220 -61 -319 -17 -100 -53
-257 -81 -350 -27 -94 -56 -222 -63 -285 l-13 -115 93 0 c51 0 94 7 95 15 0 8
5 33 11 55 5 22 11 54 13 70 3 17 18 53 33 80 16 28 27 65 24 83 -3 19 5 39
16 46 12 8 21 38 21 68 0 30 11 66 24 79 19 19 18 24 -2 24 -25 0 -15 101 15
150 6 11 14 34 17 50 12 70 28 213 28 245 0 20 8 31 17 25 27 -16 74 9 74 40
0 16 -7 23 -17 18 -18 -11 -13 167 6 202 5 11 13 51 16 89 3 37 13 88 23 113
9 24 11 63 5 86 -7 27 -1 42 15 42 14 0 20 6 13 13 -8 7 -2 27 11 44 14 17 15
25 3 17 -27 -16 -16 193 13 248 25 46 24 84 -1 68 -11 -7 -20 -3 -20 9 0 11 9
21 20 21 11 0 20 29 20 65 0 36 9 78 19 94 12 19 11 39 -3 55 -15 19 -14 26 4
26 16 0 21 18 15 50 -5 28 -3 50 4 50 7 0 14 20 14 45 4 175 9 215 27 215 11
0 20 -17 20 -38 0 -20 12 -47 27 -60 16 -13 23 -44 17 -75 -7 -37 -3 -49 13
-39 32 20 29 84 -7 119 -48 48 -48 156 -1 205 61 62 164 129 178 115 6 -7 34
2 62 20 27 18 66 36 85 39 20 3 47 12 61 21 14 8 34 10 44 3 11 -6 38 7 61 30
23 23 51 36 63 28 11 -7 40 -4 64 8 67 31 181 74 203 75 11 1 56 18 100 38 44
21 92 38 106 39 14 1 32 11 40 22 28 39 224 56 249 21 8 -12 15 4 15 35 0 65
76 110 109 64 15 -21 28 -16 64 25 59 69 108 35 95 -66 -5 -39 0 -69 12 -69
11 0 21 16 21 35 8 184 32 245 99 245 33 0 60 7 60 15 0 27 120 84 150 72 34
-13 41 -98 10 -117 -12 -7 -15 -21 -9 -32 6 -10 20 -13 31 -7 10 6 13 20 7 30
-6 11 -3 19 8 19 17 0 46 -80 54 -150 2 -11 14 -47 28 -80 37 -89 41 -127 21
-180 -21 -55 13 -93 42 -48 12 20 19 11 21 -32 3 -33 6 -78 9 -100 2 -22 5
-56 6 -76 1 -20 11 -31 22 -24 28 18 25 -57 -4 -86 -13 -13 -15 -24 -4 -24 11
0 21 -29 23 -65 2 -53 0 -58 -15 -25 -13 31 -18 33 -19 7 0 -17 13 -43 29 -57
17 -14 30 -42 30 -62 0 -21 7 -38 16 -38 9 0 28 -67 41 -150 14 -82 35 -155
46 -162 11 -6 15 -25 9 -40 -6 -15 -3 -28 7 -28 10 0 15 -43 11 -96 -6 -61 3
-117 22 -155 17 -32 35 -95 42 -139 6 -44 17 -84 25 -90 8 -5 20 -50 27 -99 6
-51 26 -101 46 -115 20 -14 39 -46 42 -71 8 -47 45 -98 47 -64 1 10 6 42 10
69 23 147 25 180 9 190 -10 6 -14 23 -9 36 8 21 -160 897 -229 1194 -12 50
-21 123 -22 164 0 40 -8 79 -18 85 -9 6 -24 44 -31 86 -8 41 -72 252 -143 469
-125 385 -151 529 -108 596 16 25 19 22 20 -13 0 -41 38 -150 86 -245 13 -27
96 -95 184 -151 88 -57 253 -183 366 -279 l205 -176 312 297 c453 430 428 383
396 733 -12 126 -8 143 41 214 79 115 111 225 133 460 25 267 27 275 74 233
40 -37 114 -44 133 -13 7 11 -6 20 -27 20 -115 0 -140 133 -74 389 23 93 27
97 49 55 18 -35 17 -56 -7 -103 -59 -114 -39 -168 50 -134 121 45 61 333 -66
315 -18 -2 -19 42 -2 143 10 59 18 71 43 57 22 -12 41 -6 63 21 17 21 67 51
111 66 66 23 73 30 42 43 -22 8 -74 1 -124 -18 -52 -19 -92 -24 -99 -13 -6 11
-29 19 -50 19 -23 0 -40 14 -40 35 -2 30 -4 29 -19 -5 -13 -30 -18 -18 -19 53
-1 86 -5 93 -61 104 -47 9 -59 21 -55 56 3 29 -10 52 -38 67 -23 12 -57 34
-75 49 -26 21 -44 22 -84 4 -36 -17 -62 -17 -90 -2 -22 12 -56 16 -75 10 -20
-6 -82 -3 -139 8 -111 21 -164 12 -164 -29 0 -14 -13 -31 -30 -37 -16 -7 -30
-22 -30 -34 0 -12 9 -16 20 -9 11 7 14 -1 8 -19 -25 -63 -263 -148 -281 -100
-7 17 -38 29 -78 29 -68 0 -106 27 -70 50 13 8 10 29 -9 58 -17 25 -23 52 -15
61 8 8 -39 8 -105 0 -66 -8 -129 -14 -140 -13 -11 2 -69 9 -130 16 -60 8 -117
26 -126 41 -26 43 -45 33 -143 -76z m1745 -171 c81 -40 103 -79 52 -89 -33 -7
-33 -10 2 -44 42 -42 20 -214 -39 -304 -75 -115 -523 -115 -624 0 -55 63 -134
298 -117 351 40 126 528 184 726 86z m-1241 -5 c60 -32 128 -55 175 -58 85 -8
2 -368 -100 -435 -116 -76 -443 -76 -556 0 -106 72 -168 326 -99 411 70 85
468 142 580 82z m-880 -300 c-3 -17 5 -29 18 -27 58 11 20 -138 -47 -181 -37
-24 -66 -60 -66 -82 0 -24 -7 -32 -18 -20 -16 18 -43 321 -30 335 24 24 147 2
143 -25z m102 -306 c10 -36 24 -94 30 -129 l11 -63 -57 33 c-65 37 -87 108
-56 178 29 63 48 58 72 -19z m-56 -196 c54 -28 49 -59 -9 -59 -46 0 -82 43
-57 68 16 16 21 15 66 -9z m1939 -1109 c-22 -26 -20 -29 7 -18 38 14 46 -24 8
-39 -16 -6 -18 -16 -5 -26 67 -56 76 -226 11 -212 -13 4 -19 -2 -13 -11 9 -15
-182 -213 -208 -215 -5 0 -44 -31 -85 -68 -134 -122 -356 -242 -417 -226 -40
10 -54 85 -17 85 106 0 91 170 -19 215 -66 27 -67 26 -55 -21 12 -46 7 -49
-67 -47 -59 2 -78 10 -75 32 3 17 -7 30 -21 31 -14 0 -33 12 -42 27 -9 14 -20
25 -24 23 -46 -23 -227 67 -212 106 8 22 0 27 -31 19 -26 -7 -36 -3 -28 9 7
12 -5 44 -27 71 -21 27 -33 55 -26 62 6 7 0 26 -14 43 -36 43 -8 63 35 25 19
-18 60 -42 90 -53 30 -12 55 -35 55 -53 0 -19 14 -29 35 -26 19 3 48 -2 63
-12 20 -12 24 -10 12 9 -10 17 -6 22 12 16 15 -5 37 -28 47 -51 30 -66 279
-84 340 -24 10 10 41 19 67 19 40 0 45 5 25 28 -19 24 -16 27 18 18 105 -27
327 66 467 196 105 98 140 123 94 68z m-714 -157 c6 5 15 1 22 -10 9 -15 -142
-63 -199 -63 -20 0 -7 39 21 67 22 22 46 26 89 13 32 -9 62 -12 67 -7z"/>
<path d="M5060 6090 c0 -16 -10 -30 -21 -30 -12 0 -16 9 -9 20 20 32 -9 23
-72 -21 -63 -46 -90 -190 -30 -167 15 6 34 1 41 -11 8 -12 -4 -21 -28 -21 -91
0 -32 -75 69 -87 44 -5 109 -15 145 -23 78 -18 87 13 13 47 -87 40 -45 72 119
91 106 13 153 26 153 45 0 15 -9 27 -20 27 -11 0 -20 12 -20 27 0 34 -78 105
-135 122 -63 19 -58 -25 5 -49 28 -10 50 -28 50 -40 0 -23 -27 -27 -48 -6 -8
8 -29 16 -48 17 -19 1 -59 4 -90 6 -47 2 -55 10 -44 43 7 23 4 40 -9 40 -11 0
-21 -13 -21 -30z m191 -120 c34 -25 35 -32 9 -49 -42 -29 -60 -26 -60 9 0 17
-9 30 -20 30 -11 0 -20 9 -20 20 0 29 47 24 91 -10z"/>
<path d="M4220 6052 c0 -17 -11 -32 -25 -32 -18 -1 -19 -5 -2 -15 13 -8 26
-37 30 -65 5 -35 21 -52 55 -57 40 -5 45 0 32 30 -8 20 -19 57 -25 81 -12 58
-65 105 -65 58z"/>
<path d="M3960 6029 c0 -5 15 -44 32 -85 18 -41 34 -101 35 -134 2 -45 13 -60
41 -60 21 0 45 -18 54 -40 13 -34 15 -32 17 16 1 45 8 54 36 45 22 -6 45 4 59
27 21 34 17 39 -43 51 -66 12 -67 13 -48 83 11 40 15 77 8 83 -6 7 -11 1 -11
-12 0 -12 -9 -23 -20 -23 -11 0 -20 14 -20 30 0 21 -21 30 -70 30 -38 0 -70
-5 -70 -11z"/>
<path d="M3764 5943 c-2 -29 -6 -79 -9 -110 -5 -53 1 -58 70 -62 78 -5 88 7
55 68 -14 27 -11 44 10 61 39 33 38 53 -5 70 -84 35 -118 27 -121 -27z"/>
<path d="M387 6314 c-10 -15 -30 -33 -47 -39 -21 -7 -13 -17 28 -33 75 -30
106 -18 102 41 -4 53 -58 74 -83 31z"/>
<path d="M514 6287 c-23 -22 7 -47 57 -47 30 0 49 12 49 30 0 30 -80 43 -106
17z"/>
<path d="M700 6260 c-27 -9 -41 -18 -30 -19 107 -18 127 -17 117 10 -12 32
-15 32 -87 9z"/>
<path d="M1948 6144 c7 -12 4 -26 -6 -33 -11 -7 -10 -34 3 -69 19 -50 27 -55
60 -35 31 19 43 16 66 -16 27 -36 29 -33 29 44 0 92 -2 94 -98 115 -44 9 -63
7 -54 -6z"/>
<path d="M5932 5903 c-7 -11 -3 -44 9 -75 14 -38 14 -88 -1 -166 -42 -217 -68
-312 -91 -342 -30 -38 -55 -140 -34 -140 8 0 28 29 43 65 16 36 38 88 50 115
12 28 49 87 83 131 130 173 133 410 6 425 -29 4 -59 -2 -65 -13z"/>
<path d="M2118 5600 c-12 -96 -10 -108 16 -97 9 4 11 48 5 97 l-10 90 -11 -90z"/>
<path d="M4492 5590 c-21 -32 -25 -50 -10 -50 17 0 17 -7 -1 -28 -14 -17 -15
-33 -4 -40 11 -7 15 -29 9 -50 -7 -26 3 -42 33 -52 31 -9 39 -24 31 -51 -7
-21 -2 -56 10 -78 25 -48 6 -52 -49 -10 -73 55 -243 23 -218 -41 6 -17 32 -30
58 -30 26 0 52 -9 59 -20 7 -11 -6 -20 -28 -20 -48 0 -142 -40 -142 -61 0 -8
-45 -26 -100 -39 -55 -13 -95 -31 -90 -40 5 -9 -4 -21 -21 -28 -69 -26 -28
-140 55 -154 46 -7 78 -3 82 10 5 15 18 13 40 -5 19 -15 47 -22 63 -16 18 7
25 1 19 -15 -10 -25 100 -92 149 -92 53 0 37 42 -26 68 -117 49 -89 77 64 65
74 -6 165 -11 202 -11 40 0 61 -9 53 -21 -7 -12 3 -21 21 -21 18 0 37 18 43
40 6 22 25 41 43 41 18 1 62 4 98 8 36 4 71 -2 77 -12 7 -11 22 -10 38 3 58
48 137 -73 111 -168 -50 -177 -55 -209 -40 -233 10 -17 24 6 41 63 13 48 32
97 41 107 48 54 18 320 -43 395 -56 67 -200 123 -233 90 -20 -20 35 -94 70
-94 38 0 83 -36 83 -67 0 -10 -36 -13 -80 -8 -44 6 -76 4 -70 -5 5 -9 -24 -21
-65 -27 -41 -6 -107 -17 -147 -24 -62 -11 -74 -7 -83 29 -12 45 -75 59 -75 16
0 -19 -59 -26 -232 -29 l-232 -4 50 40 c28 21 60 39 72 39 12 0 33 18 46 39
18 29 31 33 50 18 14 -12 26 -16 26 -9 0 7 17 4 37 -7 21 -11 44 -14 51 -6 7
7 38 16 68 20 118 16 147 104 116 355 -4 33 -8 90 -10 126 -1 39 -10 61 -22
54 -11 -7 -20 6 -20 28 0 61 -32 67 -68 12z"/>
<path d="M6791 5582 c-12 -19 33 -42 83 -42 25 0 26 6 6 30 -28 33 -72 39 -89
12z"/>
<path d="M4252 5427 c-104 -72 -139 -124 -109 -164 14 -18 28 -36 30 -40 2 -4
25 7 50 25 25 18 40 32 32 32 -7 0 -3 27 8 60 23 66 110 104 137 60 20 -33 60
-8 60 38 0 51 -128 44 -208 -11z"/>
<path d="M4787 5428 c-22 -56 44 -102 72 -50 13 24 17 52 11 62 -19 31 -70 24
-83 -12z"/>
<path d="M4953 5424 c-20 -36 14 -159 51 -182 23 -14 34 -16 27 -3 -27 43 21
19 76 -39 31 -33 64 -60 73 -60 9 0 36 -31 60 -70 46 -74 69 -86 86 -44 19 50
-10 130 -51 141 -31 8 -38 23 -30 61 5 28 2 46 -6 41 -24 -14 -119 27 -119 52
0 47 -147 139 -167 103z"/>
<path d="M4791 5242 c-13 -21 45 -37 94 -27 19 5 35 16 35 26 0 24 -114 25
-129 1z"/>
<path d="M3875 5194 c-30 -12 -55 -34 -55 -50 0 -17 12 -24 30 -16 17 7 44 17
60 24 17 7 30 2 30 -10 0 -12 -13 -22 -30 -22 -42 0 -38 -33 5 -34 40 -1 165
86 165 115 0 25 -135 20 -205 -7z"/>
<path d="M4710 5121 c-48 -20 -121 -97 -105 -112 22 -23 288 4 305 31 39 62
-104 120 -200 81z"/>
<path d="M3985 4634 c-56 -25 -57 -47 -3 -64 50 -17 63 -6 55 46 -6 32 -14 35
-52 18z"/>
<path d="M4570 4620 c-11 -18 -51 -22 -133 -14 -64 5 -122 2 -128 -8 -6 -10 3
-18 20 -18 17 0 31 -7 31 -16 0 -23 119 -63 151 -51 16 6 34 -3 41 -21 17 -44
75 -40 119 9 27 30 51 37 92 28 63 -14 137 19 137 62 0 21 -24 29 -85 29 -47
0 -118 6 -157 12 -48 8 -78 4 -88 -12z"/>
<path d="M4866 4258 c-30 -30 -10 -78 26 -65 18 7 29 -2 30 -26 1 -28 4 -30
13 -7 6 17 21 37 33 45 12 8 -2 15 -32 15 -40 0 -52 8 -43 30 13 36 3 38 -27
8z"/>
<path d="M5503 3939 c29 -82 11 -205 -84 -586 -75 -300 -108 -379 -206 -488
-39 -44 -39 -45 -1 -45 21 1 58 30 83 65 56 81 57 89 -14 -295 -32 -176 -86
-500 -120 -720 -61 -393 -93 -530 -125 -530 -23 0 -20 55 4 70 11 7 19 32 18
56 -1 30 -5 34 -13 14 -14 -37 -48 -61 -69 -48 -29 18 -17 53 14 41 21 -8 31
2 33 33 2 24 5 69 7 99 2 30 -2 55 -9 55 -7 0 -10 64 -8 143 3 78 1 150 -5
160 -6 9 -13 87 -17 172 -8 211 -31 346 -60 357 -14 6 -20 34 -16 66 5 32 -1
63 -13 71 -58 35 10 254 88 284 80 30 98 -13 33 -80 -114 -117 -77 -155 40
-40 l75 73 -52 67 c-130 171 -356 273 -499 226 -124 -41 -369 -298 -307 -322
27 -11 70 -38 95 -62 33 -31 45 -34 45 -13 0 16 -18 45 -40 63 -47 41 -50 62
-12 94 53 43 200 -183 180 -276 -9 -40 -17 -86 -18 -103 -1 -16 -10 -46 -18
-65 -9 -19 -11 -49 -5 -65 7 -16 2 -30 -10 -30 -28 0 -15 -764 13 -785 13 -10
11 -21 -5 -31 -17 -11 -19 -34 -8 -75 10 -33 13 -89 8 -124 -6 -40 -1 -65 13
-65 12 0 22 -13 22 -30 0 -16 -13 -30 -30 -30 -36 0 -37 -25 -8 -159 12 -56
31 -101 42 -101 11 0 15 -15 8 -33 -13 -34 43 -328 66 -347 7 -5 13 -37 14
-70 4 -103 51 -310 71 -310 11 0 14 -9 7 -20 -7 -11 -6 -61 1 -110 l14 -90 86
0 c91 0 98 11 118 167 11 84 37 163 59 178 15 10 14 14 -3 15 -14 0 -25 14
-25 31 0 17 9 26 19 19 12 -7 19 27 19 84 -2 110 45 342 90 448 17 40 27 76
24 80 -4 5 -13 44 -20 88 -10 62 -8 73 9 50 19 -25 21 -24 10 8 -6 21 0 57 15
80 38 58 94 229 94 286 0 25 11 46 25 46 17 1 15 7 -5 20 -26 17 -26 19 3 20
25 0 37 34 55 151 12 82 35 181 51 219 17 41 21 74 10 81 -24 15 -24 150 0
188 15 24 23 24 50 2 29 -24 30 -21 12 25 -13 36 -13 57 2 66 15 9 15 17 0 26
-15 9 -13 29 4 63 18 34 19 65 6 101 -30 80 20 244 70 231 20 -5 42 -1 48 9 6
10 1 18 -11 18 -13 0 -38 15 -56 34 -32 32 -32 33 0 21 38 -14 73 22 42 42
-57 38 -71 231 -24 352 65 170 103 232 135 223 18 -6 76 -21 130 -34 218 -53
218 -302 2 -1748 -16 -110 -65 -448 -109 -752 -68 -468 -118 -732 -172 -903
-8 -27 1 -35 42 -35 30 0 50 11 49 25 -9 66 3 136 21 125 12 -7 21 19 22 64 4
114 27 197 54 191 32 -7 31 69 -1 80 -20 7 -20 19 -1 57 20 41 29 84 49 233 2
14 11 25 20 25 10 0 17 23 17 50 0 28 -9 50 -21 50 -14 0 -14 12 0 39 12 21
21 64 21 96 0 32 7 65 15 73 8 9 16 75 18 149 3 180 28 367 52 398 14 17 12
25 -6 25 -17 0 -13 13 11 40 25 28 43 34 60 20 18 -15 22 -8 15 28 -5 27 -26
53 -47 58 -49 13 -49 84 -1 118 31 22 37 54 36 213 0 125 8 191 24 201 13 8
28 64 32 124 10 147 30 275 53 350 11 35 20 113 21 175 1 117 45 165 105 115
14 -12 30 -17 36 -11 14 13 118 -42 118 -64 1 -9 12 -15 26 -12 14 3 36 -17
48 -45 13 -27 37 -50 55 -50 17 0 26 -9 19 -20 -7 -11 -3 -20 9 -20 11 0 21
15 21 33 0 25 13 29 64 19 64 -13 102 -47 84 -75 -5 -9 13 -22 41 -29 28 -7
51 -21 51 -32 0 -11 14 -15 30 -9 19 8 30 0 30 -22 0 -26 5 -28 24 -9 34 34
96 30 96 -6 0 -25 47 -40 103 -33 7 1 8 -16 3 -38 -9 -31 -1 -39 40 -39 29 0
58 -10 65 -22 8 -12 35 -18 61 -13 27 5 48 2 48 -8 0 -9 17 -17 38 -17 20 0
47 -12 59 -27 12 -14 58 -38 102 -53 84 -27 120 -74 71 -93 -20 -7 -24 -21
-13 -42 10 -17 9 -62 -1 -103 -10 -39 -22 -103 -27 -142 -5 -38 -17 -88 -27
-110 -10 -22 -28 -125 -41 -230 -49 -386 -81 -612 -99 -690 -10 -44 -51 -228
-92 -410 -41 -181 -84 -336 -95 -343 -11 -7 -16 -26 -9 -43 6 -16 -1 -64 -15
-107 -55 -163 -58 -207 -13 -207 26 0 37 10 30 27 -6 15 2 33 18 39 19 7 27
37 24 93 -3 45 3 86 12 92 9 6 11 24 5 40 -8 20 -2 26 19 18 16 -7 37 -1 45
13 9 14 7 19 -6 11 -11 -7 -26 0 -32 16 -6 16 0 33 13 38 18 7 17 10 -1 11
-19 2 -17 15 7 52 18 28 28 67 23 88 -7 27 2 42 30 49 26 7 36 21 28 42 -6 17
-3 51 8 76 19 43 20 43 12 2 -4 -23 0 -55 9 -70 13 -20 17 -15 18 18 0 25 9
45 20 45 11 0 20 29 20 65 0 36 12 88 26 115 14 28 28 113 31 190 3 77 22 257
43 400 21 143 48 357 62 475 31 279 57 274 56 -10 -1 -164 7 -241 29 -284 17
-32 25 -68 18 -80 -7 -11 4 -7 24 9 35 28 36 27 13 -15 -13 -25 -19 -54 -13
-64 7 -10 2 -24 -9 -31 -13 -8 -14 -25 0 -50 31 -58 24 -100 -21 -117 l-41
-15 40 -37 c47 -41 38 -71 -20 -71 -33 0 -35 -5 -14 -27 14 -16 38 -23 53 -17
22 8 23 2 5 -31 -16 -32 -16 -44 3 -52 20 -8 20 -10 0 -11 -14 -1 -25 -12 -25
-23 0 -12 8 -16 18 -10 10 6 17 -41 14 -109 -2 -66 2 -120 9 -120 6 0 14 -47
17 -104 3 -76 15 -111 43 -131 37 -26 41 -84 14 -185 -5 -16 -5 -23 0 -15 5 8
17 10 28 3 12 -7 8 -25 -10 -45 -31 -34 -25 -203 7 -203 8 0 10 -23 5 -50 -10
-49 -8 -50 125 -50 l134 0 -12 65 c-6 36 -26 191 -42 345 -17 154 -46 338 -63
410 -18 71 -39 270 -47 440 -12 240 -26 342 -61 450 -31 93 -46 183 -45 270 6
369 -73 673 -185 709 -32 10 -194 84 -359 163 -165 79 -466 223 -670 319 -203
97 -401 196 -440 221 -38 25 -124 69 -191 98 -119 51 -123 55 -257 281 -134
225 -191 289 -149 168z m-680 -1085 c-28 -34 -10 -55 34 -39 30 12 30 10 -1
-21 -42 -43 -56 -43 -56 -2 0 23 -12 29 -40 22 -22 -6 -40 -2 -40 8 0 10 19
18 41 18 23 0 36 9 29 20 -19 32 10 68 35 43 15 -15 14 -30 -2 -49z"/>
<path d="M1191 3893 c-52 -38 -20 -79 52 -68 43 6 65 -2 79 -29 11 -20 35 -35
54 -32 22 4 36 -10 40 -39 5 -30 20 -45 48 -45 31 0 38 10 30 40 -6 22 -2 45
8 51 10 6 18 -3 18 -20 0 -17 9 -31 20 -31 56 0 5 75 -60 89 -5 1 -22 9 -37
19 -17 10 -33 8 -42 -6 -18 -30 -81 -7 -81 30 0 15 -13 28 -30 28 -16 0 -30 9
-30 20 0 28 -25 25 -69 -7z"/>
<path d="M171 3669 c-38 -28 -38 -29 5 -29 24 0 55 -18 69 -40 30 -49 67 -51
93 -5 17 31 21 29 39 -17 22 -58 123 -78 123 -25 0 15 -13 27 -30 27 -16 0
-30 14 -30 31 0 17 -8 26 -19 20 -10 -6 -24 -3 -30 7 -6 11 -33 15 -59 11 -30
-6 -52 2 -59 21 -15 38 -52 37 -102 -1z"/>
<path d="M1700 3592 c0 -38 9 -75 20 -82 12 -7 20 16 20 58 0 38 -9 75 -20 82
-12 7 -20 -16 -20 -58z"/>
<path d="M5810 3230 c-6 -22 -13 -49 -14 -60 -1 -11 -16 -31 -34 -45 -29 -23
-28 -24 3 -13 47 16 44 -3 -7 -54 -22 -22 -54 -36 -69 -30 -15 5 -33 2 -40 -9
-6 -10 16 -19 50 -19 33 0 61 9 61 20 0 11 9 20 20 20 26 0 26 -195 0 -203
-12 -4 -8 -28 8 -61 33 -63 15 -176 -36 -227 -18 -18 -28 -50 -22 -75 6 -24
13 -64 16 -88 4 -25 13 -52 22 -60 9 -9 13 2 10 24 -3 22 6 76 20 120 32 103
59 350 37 350 -9 0 -7 18 5 41 24 44 23 279 -2 359 -14 46 -16 47 -28 10z"/>
<path d="M3412 3105 c-22 -29 -28 -45 -15 -37 12 8 23 5 23 -7 0 -11 -10 -21
-21 -21 -12 0 -16 -9 -9 -20 7 -12 21 -15 31 -9 28 17 23 -19 -6 -50 -20 -22
-19 -25 7 -16 35 12 43 -129 10 -181 -9 -16 -5 -23 12 -19 14 3 23 -7 20 -22
-3 -15 3 -38 13 -50 10 -13 16 -56 13 -97 -4 -46 4 -83 22 -97 30 -25 39 -79
13 -79 -8 0 -12 -40 -8 -89 4 -52 16 -88 29 -85 12 2 23 -14 23 -36 1 -22 12
-38 26 -35 43 9 27 -27 -23 -54 -49 -26 -32 -87 19 -68 11 4 20 -10 20 -33 0
-22 -5 -40 -11 -40 -6 0 -11 -18 -11 -40 0 -22 7 -40 15 -40 9 0 16 -10 16
-21 0 -12 -11 -15 -25 -7 -14 8 -5 -6 20 -30 31 -30 45 -67 45 -119 0 -42 7
-83 15 -91 8 -9 16 -21 17 -29 1 -7 7 -26 14 -43 6 -16 15 -70 20 -120 5 -49
18 -119 30 -155 12 -37 13 -61 3 -54 -11 6 -19 3 -19 -8 0 -11 -6 -36 -14 -56
-12 -34 -10 -34 25 -8 22 16 32 22 24 12 -8 -10 -1 -39 16 -65 17 -26 26 -55
20 -65 -6 -10 0 -22 14 -28 20 -8 20 -10 0 -11 -34 -3 -32 -82 3 -82 15 0 32
-18 38 -40 6 -23 0 -40 -13 -40 -13 0 -10 -9 7 -20 17 -10 32 -35 35 -54 3
-20 9 -67 15 -106 8 -53 6 -61 -8 -30 -16 33 -19 34 -21 6 0 -19 13 -42 29
-51 45 -25 66 -127 40 -190 -12 -28 -7 -33 23 -23 33 12 33 10 -3 -18 -37 -29
-37 -32 -5 -45 19 -7 35 -24 35 -38 0 -35 70 -94 90 -76 9 8 10 3 1 -11 -35
-62 7 -164 68 -164 l58 0 -41 115 c-82 232 -264 890 -336 1215 -24 110 -66
286 -93 390 -27 105 -53 208 -58 230 -47 227 -61 310 -53 310 5 0 -1 12 -13
27 -13 15 -18 32 -12 38 6 6 -3 44 -20 85 -17 41 -31 112 -31 157 0 111 -36
237 -75 268 -23 17 -25 25 -7 25 19 0 23 18 13 65 -7 36 -19 102 -27 148 l-14
83 -38 -51z"/>
<path d="M1846 2185 c-2 -30 9 -99 25 -154 16 -54 29 -128 29 -165 0 -36 9
-66 20 -66 29 0 25 32 -20 196 -22 80 -35 167 -28 195 7 27 5 49 -5 49 -9 0
-19 -25 -21 -55z"/>
<path d="M5473 2225 c-7 -13 -5 -75 4 -129 2 -8 17 -10 33 -3 17 6 30 0 30
-14 0 -14 7 -19 14 -11 39 38 17 172 -28 172 -24 0 -48 -7 -53 -15z"/>
<path d="M5700 2127 c0 -83 -9 -120 -35 -141 -19 -16 -22 -22 -7 -14 22 11 25
6 15 -21 -7 -19 -7 -45 0 -57 11 -17 56 106 87 236 13 53 -3 110 -30 110 -23
0 -30 -26 -30 -113z"/>
<path d="M6319 1994 c-29 -36 -56 -51 -79 -44 -33 10 -70 -48 -62 -97 2 -9
-15 -21 -37 -27 -23 -6 -41 -18 -41 -27 0 -10 -34 -24 -75 -31 -41 -8 -64 -18
-50 -23 36 -12 31 -39 -15 -85 -35 -35 -40 -36 -40 -7 0 68 -29 2 -32 -73 -1
-42 -22 -115 -46 -161 -37 -70 -38 -82 -11 -72 18 7 48 2 68 -12 35 -24 41
-36 41 -73 0 -28 157 -83 227 -80 35 2 133 -7 219 -21 166 -26 280 0 307 70 6
16 18 24 27 19 9 -5 21 5 28 22 11 27 33 30 140 19 l127 -14 -10 55 c-10 51
-13 52 -38 18 -49 -68 -173 -19 -189 75 -9 60 -5 75 20 76 21 1 16 8 -13 20
-30 12 -45 35 -45 68 0 28 -8 51 -18 51 -11 0 -25 27 -32 60 -7 33 -22 60 -33
60 -11 0 -14 9 -7 20 7 11 -8 49 -33 84 -25 35 -34 57 -21 49 15 -10 20 -5 12
15 -6 16 -24 25 -40 19 -19 -8 -28 3 -28 32 0 23 -11 41 -25 40 -47 -7 -77 1
-68 16 27 44 -90 7 -128 -41z m138 -111 c14 -10 31 -57 36 -105 6 -48 36 -151
66 -228 86 -216 91 -250 36 -249 -152 4 -200 27 -226 109 -14 44 -41 116 -58
160 l-32 80 13 -80 c8 -44 13 -101 11 -126 -1 -25 11 -51 27 -57 17 -6 30 -20
30 -31 0 -22 -368 -15 -389 7 -20 20 105 196 242 340 70 73 127 147 127 165 0
35 71 44 117 15z"/>
<path d="M6340 1685 c0 -32 181 -285 203 -285 22 0 -28 99 -107 215 -52 77
-96 109 -96 70z"/>
<path d="M5611 1698 c-7 -67 -8 -127 -2 -134 23 -22 49 27 54 102 3 42 12 81
21 87 31 19 15 67 -21 67 -31 0 -40 -21 -52 -122z"/>
<path d="M5594 1465 c-33 -83 -28 -109 17 -92 18 7 29 39 29 89 0 97 -8 98
-46 3z"/>
<path d="M2029 1390 c-11 -44 -15 -111 -8 -150 l12 -70 15 91 c23 139 9 237
-19 129z"/>
<path d="M7059 1226 c-12 -29 -17 -72 -13 -95 8 -38 9 -38 11 4 2 25 12 45 23
45 11 0 18 23 15 50 -5 63 -11 63 -36 -4z"/>
<path d="M5538 855 c-2 -80 -1 -154 2 -165 3 -11 5 -31 6 -45 0 -14 7 -25 15
-25 8 0 10 40 4 90 -6 54 -1 101 13 118 17 20 17 30 2 35 -16 6 -17 24 -3 60
11 29 15 58 8 65 -33 33 -45 -1 -47 -133z"/>
<path d="M7520 660 c0 -11 17 -20 38 -20 21 0 43 -11 48 -25 6 -14 9 -5 8 20
-3 45 -94 70 -94 25z"/>
<path d="M5480 571 c0 -39 9 -71 20 -71 11 0 20 26 20 59 0 32 -9 64 -20 71
-12 7 -20 -16 -20 -59z"/>
<path d="M7533 587 c-19 -20 -16 -107 5 -107 15 0 41 64 42 105 0 19 -29 20
-47 2z"/>
<path d="M7460 519 c0 -23 -10 -60 -22 -83 -16 -30 -16 -37 0 -27 12 7 22 5
22 -6 0 -11 -9 -24 -20 -30 -12 -5 -10 -8 5 -5 27 6 58 192 31 192 -9 0 -16
-19 -16 -41z"/>
</g>
</svg>
